<?xml version="1.0" standalone="no"?>
<!DOCTYPE svg PUBLIC "-//W3C//DTD SVG 20010904//EN"
 "http://www.w3.org/TR/2001/REC-SVG-20010904/DTD/svg10.dtd">
<svg version="1.0" xmlns="http://www.w3.org/2000/svg"
 width="512.000000pt" height="512.000000pt" viewBox="0 0 512.000000 512.000000"
 preserveAspectRatio="xMidYMid meet">
<metadata>
Created by potrace 1.11, written by Peter Selinger 2001-2013
</metadata>
<g transform="translate(0.000000,512.000000) scale(0.100000,-0.100000)"
fill="#000000" stroke="none">
<path d="M224 4872 c-95 -28 -168 -94 -204 -187 -18 -49 -19 -101 -19 -2130
l-1 -2080 30 -60 c44 -87 110 -143 205 -172 18 -6 957 -9 2330 -8 1922 0 2307
3 2340 14 92 32 160 97 195 186 19 49 19 98 17 2135 l-2 2085 -21 46 c-38 82
-94 132 -189 171 -47 18 -4617 19 -4681 0z m3323 -395 c6 -4 13 -3 15 2 1 4
24 2 49 -5 68 -20 83 -48 85 -158 2 -105 -7 -139 -48 -168 -26 -18 -43 -21
-124 -20 -83 0 -97 3 -122 24 -26 21 -62 106 -40 91 6 -3 7 2 1 13 -23 50 -2
172 34 198 37 27 122 40 150 23z m623 -13 c46 -28 57 -62 54 -168 -3 -141 -35
-171 -181 -168 -132 2 -160 35 -157 184 2 105 15 138 62 157 59 23 179 20 222
-5z m531 -1 c41 -24 52 -62 52 -171 l0 -96 -37 -33 c-37 -34 -40 -35 -169 -35
-106 0 -136 42 -133 187 2 96 11 123 49 148 43 28 190 28 238 0z m-2714 -686
c6 -4 14 -4 17 1 6 10 837 9 854 -1 6 -5 12 -4 12 0 0 12 923 11 932 -2 5 -7
8 -7 8 0 0 7 154 11 470 10 l470 0 0 -1591 0 -1590 -2190 0 -2190 0 0 1591 0
1590 803 0 c441 0 807 -4 814 -8z"/>
<path d="M2768 3216 c-65 -28 -74 -47 -174 -355 -100 -312 -108 -334 -120
-366 -4 -11 -8 -25 -10 -32 -3 -17 -54 -174 -63 -198 -5 -11 -32 -94 -61 -185
-28 -91 -78 -246 -110 -345 -102 -316 -107 -335 -98 -381 19 -94 123 -148 215
-113 66 25 79 50 164 314 45 137 85 259 89 270 5 11 43 130 85 265 43 135 81
254 85 265 6 15 110 334 184 570 2 6 4 13 5 18 0 4 8 24 17 45 36 87 5 185
-71 222 -46 22 -96 25 -137 6z"/>
<path d="M1940 2765 c-39 -14 -108 -45 -318 -146 -79 -38 -145 -69 -147 -69
-5 0 -157 -71 -300 -140 -96 -47 -124 -66 -143 -94 -28 -44 -31 -119 -8 -164
20 -39 65 -82 86 -82 9 0 20 -4 25 -9 6 -5 60 -32 120 -59 61 -28 155 -71 210
-97 55 -26 132 -62 170 -80 39 -18 104 -48 145 -67 154 -72 173 -79 209 -80
132 -2 209 162 124 263 -27 32 -42 39 -378 194 -93 43 -174 82 -179 86 -5 5
11 17 35 27 24 11 82 38 129 60 199 93 268 125 316 147 31 14 63 38 80 61 25
32 29 46 29 99 0 54 -4 66 -30 97 -45 53 -117 75 -175 53z"/>
<path d="M3103 2769 c-56 -10 -88 -35 -113 -85 -23 -47 -25 -92 -6 -138 18
-42 47 -65 149 -113 214 -103 257 -123 262 -123 9 0 175 -82 175 -86 0 -3 -19
-13 -42 -23 -192 -83 -485 -224 -507 -244 -116 -106 -20 -298 139 -277 8 1 62
23 120 50 58 27 137 63 175 81 39 17 117 54 175 82 58 27 111 50 118 50 6 0
12 4 12 9 0 4 5 8 11 8 5 0 74 31 152 69 126 61 144 73 164 107 29 53 33 102
14 151 -20 51 -56 80 -156 125 -80 36 -210 97 -360 168 -44 21 -102 48 -130
60 -27 13 -93 43 -145 67 -135 64 -158 71 -207 62z"/>
</g>
</svg>
